<svg xmlns="http://www.w3.org/2000/svg" width="61.716" height="13.056" viewBox="0 0 61.716 13.056">
  <path id="room" d="M28.57,12.228a6.465,6.465,0,0,1-2.538-2.3,6.209,6.209,0,0,1-.936-3.4,6.2,6.2,0,0,1,.936-3.4,6.479,6.479,0,0,1,2.533-2.3,8.226,8.226,0,0,1,7.194,0,6.409,6.409,0,0,1,2.532,2.3,6.226,6.226,0,0,1,.931,3.4,6.236,6.236,0,0,1-.931,3.4,6.4,6.4,0,0,1-2.532,2.3,8.215,8.215,0,0,1-7.188,0Zm-15.7,0a6.453,6.453,0,0,1-2.538-2.3,6.2,6.2,0,0,1-.936-3.4,6.192,6.192,0,0,1,.936-3.4A6.471,6.471,0,0,1,12.86.828,7.7,7.7,0,0,1,16.46,0a7.713,7.713,0,0,1,3.594.828,6.418,6.418,0,0,1,2.533,2.3,6.234,6.234,0,0,1,.93,3.4,6.243,6.243,0,0,1-.93,3.4,6.413,6.413,0,0,1-2.533,2.3,7.713,7.713,0,0,1-3.594.828A7.71,7.71,0,0,1,12.866,12.228Zm45.861.444V5.364A3.13,3.13,0,0,0,58.014,3.2,2.442,2.442,0,0,0,56.1,2.4a3.051,3.051,0,0,0-1.463.347,2.721,2.721,0,0,0-1.021.924,2.24,2.24,0,0,0-.372,1.236v7.764H50.256V5.244a2.981,2.981,0,0,0-.7-2.07,2.42,2.42,0,0,0-1.9-.774,3.117,3.117,0,0,0-1.482.347,2.778,2.778,0,0,0-1.031.918,2.186,2.186,0,0,0-.378,1.23v7.776H41.784V.384h2.988V1.86a5.873,5.873,0,0,1,1.794-1.4A4.684,4.684,0,0,1,48.636,0a5.042,5.042,0,0,1,2.586.66,3.671,3.671,0,0,1,1.6,1.777A6.236,6.236,0,0,1,54.708.63,4.683,4.683,0,0,1,57.156,0,4.911,4.911,0,0,1,59.5.546a4.048,4.048,0,0,1,1.62,1.56,4.751,4.751,0,0,1,.594,2.442v8.124ZM0,12.672V.384H2.988V2.172A4.565,4.565,0,0,1,4.608.558,4.217,4.217,0,0,1,6.744,0,5.118,5.118,0,0,1,8,.162,4.306,4.306,0,0,1,9.1.588L7.86,3.12a3.615,3.615,0,0,0-.918-.384,3.632,3.632,0,0,0-.966-.144,2.853,2.853,0,0,0-1.452.4,3.361,3.361,0,0,0-1.111,1.02,2.344,2.344,0,0,0-.426,1.345v7.32Z" transform="translate(0 0)" fill="#fff"/>
</svg>
